<svg xmlns="http://www.w3.org/2000/svg" xmlns:xlink="http://www.w3.org/1999/xlink" width="192" zoomAndPan="magnify" viewBox="0 0 144 72" height="96" preserveAspectRatio="xMidYMid meet" version="1.0"><defs><clipPath id="96d4b78d1b"><path d="M 0 0 L 72 0 L 72 72 L 0 72 Z M 0 0 " clip-rule="nonzero"/></clipPath><clipPath id="934b1244b4"><path d="M 36 0 C 16.117188 0 0 16.117188 0 36 C 0 55.882812 16.117188 72 36 72 C 55.882812 72 72 55.882812 72 36 C 72 16.117188 55.882812 0 36 0 Z M 36 0 " clip-rule="nonzero"/></clipPath><clipPath id="c1b769005d"><path d="M 18.082031 13 L 54 13 L 54 66 L 18.082031 66 Z M 18.082031 13 " clip-rule="nonzero"/></clipPath></defs><g clip-path="url(#96d4b78d1b)"><g clip-path="url(#934b1244b4)"><path fill="#d4158a" d="M 0 0 L 72 0 L 72 72 L 0 72 Z M 0 0 " fill-opacity="1" fill-rule="nonzero"/><path stroke-linecap="butt" transform="matrix(0.75, 0, 0, 0.75, -0.000000000000005329, 0.000002)" fill="none" stroke-linejoin="miter" d="M 48.000002 -0.00000266667 C 21.489584 -0.00000266667 0.000000000000007105 21.489582 0.000000000000007105 47.999999 C 0.000000000000007105 74.510417 21.489584 96.000001 48.000002 96.000001 C 74.51042 96.000001 96.000004 74.510417 96.000004 47.999999 C 96.000004 21.489582 74.51042 -0.00000266667 48.000002 -0.00000266667 Z M 48.000002 -0.00000266667 " stroke="#d4158a" stroke-width="8" stroke-opacity="1" stroke-miterlimit="4"/></g></g><g clip-path="url(#c1b769005d)"><path fill="#ffffff" d="M 50.226562 55.148438 C 50.226562 55.148438 46.738281 52.664062 42.058594 52.855469 C 37.378906 53.042969 32.269531 58.445312 27.058594 59.921875 C 21.855469 61.40625 18.082031 65.847656 18.082031 65.847656 C 18.082031 65.847656 18.582031 63.148438 20.300781 61.355469 C 22.019531 59.566406 24.265625 56.960938 24.265625 56.960938 C 24.265625 56.960938 24.480469 55.742188 24.863281 54.644531 C 25.246094 53.546875 28.421875 51.160156 29.617188 50.492188 C 30.8125 49.820312 33.007812 49.773438 33.292969 49.035156 C 33.582031 48.292969 33.722656 44.804688 33.152344 43.683594 C 32.578125 42.558594 32.171875 41.535156 31.003906 42.011719 C 29.832031 42.488281 26.75 44.660156 25.460938 44.015625 C 24.171875 43.371094 24.242188 41.917969 24.21875 41.199219 C 24.195312 40.480469 23.382812 40.699219 23.359375 40.050781 C 23.335938 39.40625 23.859375 39.074219 23.859375 39.074219 C 23.859375 39.074219 22.738281 39.003906 22.546875 38.5 C 22.355469 38 22.761719 38.046875 22.640625 37.28125 C 22.523438 36.519531 22.019531 36.996094 21.328125 36.542969 C 20.636719 36.089844 20.734375 35.753906 21.042969 35.109375 C 21.355469 34.464844 22.523438 32.410156 22.476562 31.40625 C 22.429688 30.402344 21.496094 29.78125 21.304688 29.257812 C 21.113281 28.734375 21.089844 27.421875 21.136719 25.484375 C 21.1875 23.550781 22.238281 21.902344 22.238281 21.902344 C 22.238281 21.902344 20.945312 21.066406 21.925781 19.511719 C 21.925781 19.511719 21.640625 20.421875 22.019531 20.996094 C 22.019531 20.996094 21.542969 19.085938 24.527344 17.246094 C 27.515625 15.40625 29.472656 12.992188 33.84375 13.066406 C 38.214844 13.136719 42.464844 16.671875 42.464844 16.671875 C 42.464844 16.671875 42.15625 15 43.15625 14.238281 C 44.160156 13.472656 45.402344 14.402344 45.402344 14.402344 C 45.402344 14.402344 44.183594 14.09375 44.015625 14.546875 C 44.015625 14.546875 45.257812 13.996094 46.546875 15.523438 C 46.546875 15.523438 48.007812 15.742188 48.363281 16.789062 C 48.363281 16.789062 48.863281 16.027344 49.628906 16.359375 C 50.394531 16.695312 50.179688 17.601562 50.371094 17.84375 C 50.5625 18.082031 52.328125 18.941406 52.949219 19.96875 C 53.570312 20.996094 52.398438 22.382812 52.398438 22.382812 C 52.398438 22.382812 53.902344 23.835938 53 26.175781 C 52.089844 28.515625 50.25 27.753906 49.582031 28.0625 C 48.914062 28.375 48.222656 29.140625 46.976562 28.972656 C 46.976562 28.972656 47.863281 29.425781 48.746094 28.851562 C 48.746094 28.851562 48.101562 29.6875 46.90625 29.328125 C 46.90625 29.328125 47.433594 29.617188 47.550781 30.523438 C 47.550781 30.523438 47.242188 29.953125 46.8125 29.710938 C 46.8125 29.710938 47.335938 30.476562 47.003906 32.027344 C 46.667969 33.582031 44.066406 35.203125 44.066406 35.203125 C 44.066406 35.203125 45.808594 35.683594 46.765625 34.894531 C 46.765625 34.894531 45.929688 35.996094 43.96875 35.5625 C 43.96875 35.5625 44.398438 36.898438 45.59375 37.355469 C 45.59375 37.355469 44.519531 37.28125 43.824219 36.183594 C 43.824219 36.183594 43.992188 37.832031 44.589844 40.316406 C 45.1875 42.800781 45.953125 46.40625 47.050781 48.914062 C 48.148438 51.421875 50.226562 55.148438 50.226562 55.148438 Z M 50.226562 55.148438 " fill-opacity="1" fill-rule="evenodd"/></g></svg>