<svg xmlns="http://www.w3.org/2000/svg" xmlns:xlink="http://www.w3.org/1999/xlink" width="192" zoomAndPan="magnify" viewBox="0 0 144 72" height="96" preserveAspectRatio="xMidYMid meet" version="1.0"><defs><clipPath id="8b12180847"><path d="M 0 0 L 72 0 L 72 72 L 0 72 Z M 0 0 " clip-rule="nonzero"/></clipPath><clipPath id="d0145d199b"><path d="M 36 0 C 16.117188 0 0 16.117188 0 36 C 0 55.882812 16.117188 72 36 72 C 55.882812 72 72 55.882812 72 36 C 72 16.117188 55.882812 0 36 0 Z M 36 0 " clip-rule="nonzero"/></clipPath><clipPath id="720e42a796"><path d="M 23 42 L 53.917969 42 L 53.917969 61.652344 L 23 61.652344 Z M 23 42 " clip-rule="nonzero"/></clipPath><clipPath id="26f39ef2e5"><path d="M 18.75 17 L 44 17 L 44 51 L 18.75 51 Z M 18.75 17 " clip-rule="nonzero"/></clipPath><clipPath id="9c685021cc"><path d="M 20 10.652344 L 49 10.652344 L 49 44 L 20 44 Z M 20 10.652344 " clip-rule="nonzero"/></clipPath></defs><g clip-path="url(#8b12180847)"><g clip-path="url(#d0145d199b)"><path fill="#1873a3" d="M 0 0 L 72 0 L 72 72 L 0 72 Z M 0 0 " fill-opacity="1" fill-rule="nonzero"/><path stroke-linecap="butt" transform="matrix(0.75, 0, 0, 0.75, -0.000000000000005329, 0.000002)" fill="none" stroke-linejoin="miter" d="M 48.000002 -0.00000266667 C 21.489584 -0.00000266667 0.000000000000007105 21.489582 0.000000000000007105 47.999999 C 0.000000000000007105 74.510417 21.489584 96.000001 48.000002 96.000001 C 74.51042 96.000001 96.000004 74.510417 96.000004 47.999999 C 96.000004 21.489582 74.51042 -0.00000266667 48.000002 -0.00000266667 Z M 48.000002 -0.00000266667 " stroke="#1873a3" stroke-width="8" stroke-opacity="1" stroke-miterlimit="4"/></g></g><g clip-path="url(#720e42a796)"><path fill="#ffffff" d="M 42.015625 42.117188 L 42.980469 42.109375 C 45.375 42.097656 46.835938 42.125 47.367188 42.191406 C 47.789062 42.222656 48.117188 42.386719 48.355469 42.679688 C 48.480469 42.890625 48.613281 43.941406 48.757812 45.832031 C 48.867188 46.367188 49.015625 46.839844 49.199219 47.25 C 49.460938 47.851562 50.507812 49.183594 52.335938 51.242188 C 52.617188 51.6875 52.847656 52.152344 53.035156 52.636719 C 53.617188 54.242188 53.75 55.496094 53.433594 56.394531 C 53.324219 56.6875 53.164062 56.9375 52.949219 57.144531 L 51.082031 58.257812 L 49.878906 58.832031 C 49.03125 59.191406 48.097656 59.519531 47.074219 59.8125 C 46.671875 60.003906 44.941406 60.359375 41.878906 60.882812 C 40.59375 61.070312 39.222656 61.21875 37.761719 61.332031 C 34.6875 61.273438 31.589844 60.898438 28.472656 60.207031 C 25.871094 59.566406 24.308594 59.144531 23.78125 58.929688 C 23.597656 58.847656 23.523438 58.671875 23.566406 58.40625 C 23.609375 58.039062 23.945312 57.414062 24.574219 56.527344 C 25.496094 55.230469 26.960938 53.507812 28.96875 51.371094 L 30.71875 48.414062 L 30.902344 48.210938 C 31.460938 47.679688 32.648438 47.269531 34.453125 46.976562 L 42.015625 42.117188 " fill-opacity="1" fill-rule="nonzero"/></g><g clip-path="url(#26f39ef2e5)"><path fill="#ffffff" d="M 27.046875 17.582031 L 27.160156 17.582031 C 29.21875 17.695312 30.832031 18.175781 32 19.027344 L 32.949219 19.746094 C 33.558594 20.273438 34.121094 20.894531 34.644531 21.613281 L 35.398438 22.761719 L 36.21875 24.261719 C 36.761719 25.453125 39.003906 31.417969 42.941406 42.160156 C 43.34375 43.671875 43.601562 45.039062 43.71875 46.269531 C 43.777344 46.882812 43.800781 47.460938 43.789062 48.003906 C 43.824219 48.316406 43.726562 49.050781 43.488281 50.203125 L 31.621094 49.929688 C 31.351562 48.6875 31.03125 47.59375 30.664062 46.640625 C 30.414062 45.84375 29.878906 44.878906 29.050781 43.746094 C 28.238281 43.097656 26.324219 42.972656 23.308594 43.371094 C 22.796875 43.289062 22.335938 43.007812 21.933594 42.53125 C 21.886719 42.523438 21.871094 42.320312 21.882812 41.914062 C 21.917969 41.550781 22.039062 41.0625 22.238281 40.449219 L 21.410156 39.34375 L 21.664062 38.269531 L 20.878906 37.484375 L 20.707031 35.8125 L 19.164062 35.253906 C 18.980469 35.179688 18.863281 34.980469 18.8125 34.660156 C 18.765625 34.269531 18.804688 33.917969 18.929688 33.613281 L 20.929688 29.5 C 20.394531 28.320312 20.164062 27.269531 20.234375 26.347656 C 20.429688 25.527344 20.785156 24.550781 21.308594 23.414062 C 22.292969 21.207031 23.003906 19.859375 23.4375 19.371094 C 24.382812 18.1875 25.585938 17.59375 27.046875 17.582031 " fill-opacity="1" fill-rule="nonzero"/></g><g clip-path="url(#9c685021cc)"><path fill="#ffffff" d="M 25.375 10.746094 L 25.375 11.015625 C 25.402344 11.695312 25.878906 12.078125 26.8125 12.160156 C 27.214844 12.195312 28.269531 12.054688 29.972656 11.742188 C 30.085938 11.632812 30.101562 11.519531 30.023438 11.402344 C 29.820312 11.191406 29.574219 11.03125 29.285156 10.929688 C 29.296875 10.851562 29.542969 10.796875 30.027344 10.769531 C 30.15625 10.6875 31.265625 11.058594 33.347656 11.875 C 33.523438 11.902344 33.652344 11.878906 33.726562 11.804688 C 33.78125 11.300781 33.859375 11.070312 33.96875 11.117188 C 34.304688 11.386719 34.78125 11.59375 35.398438 11.742188 C 35.769531 11.882812 36.867188 12.015625 38.6875 12.144531 C 38.859375 12.136719 39.34375 12.3125 40.132812 12.675781 C 41.074219 13.183594 41.957031 13.988281 42.792969 15.097656 C 43.53125 14.957031 44.011719 15.023438 44.230469 15.289062 L 45.335938 17.480469 C 46.378906 18.210938 47.128906 18.863281 47.59375 19.4375 C 47.726562 19.628906 47.335938 19.734375 46.421875 19.757812 C 47.054688 20.21875 47.679688 20.984375 48.296875 22.054688 L 47.515625 21.75 C 47.8125 22.847656 47.960938 23.621094 47.964844 24.0625 C 47.976562 24.214844 47.855469 24.179688 47.59375 23.957031 C 47.535156 23.984375 47.5 24.042969 47.484375 24.136719 C 47.542969 25.269531 47.527344 25.980469 47.449219 26.265625 L 44.074219 35.316406 C 43.9375 35.707031 43.800781 36.277344 43.664062 37.023438 C 43.566406 39.160156 43.964844 41.34375 44.851562 43.582031 C 44.613281 43.953125 42.867188 43.648438 39.617188 42.667969 L 22.324219 22.03125 C 21.976562 21.789062 21.671875 21.492188 21.410156 21.132812 C 21.148438 20.777344 20.925781 20.363281 20.75 19.890625 C 20.210938 18.230469 20.054688 16.535156 20.285156 14.800781 C 20.441406 14.476562 20.898438 14.003906 21.652344 13.390625 C 21.882812 13.191406 22.226562 13.066406 22.6875 13.011719 L 23.949219 11.914062 L 24 11.683594 C 23.949219 11.441406 23.859375 11.242188 23.738281 11.078125 C 23.742188 11.027344 23.761719 10.988281 23.800781 10.960938 C 24.023438 11.136719 24.546875 11.066406 25.375 10.746094 " fill-opacity="1" fill-rule="nonzero"/></g></svg>