<svg xmlns="http://www.w3.org/2000/svg" xmlns:xlink="http://www.w3.org/1999/xlink" width="192" zoomAndPan="magnify" viewBox="0 0 144 72" height="96" preserveAspectRatio="xMidYMid meet" version="1.0"><defs><clipPath id="52551b5dc0"><path d="M 13.5 0 L 130.5 0 C 137.957031 0 144 6.042969 144 13.5 L 144 58.5 C 144 65.957031 137.957031 72 130.5 72 L 13.5 72 C 6.042969 72 0 65.957031 0 58.5 L 0 13.5 C 0 6.042969 6.042969 0 13.5 0 Z M 13.5 0 " clip-rule="nonzero"/></clipPath></defs><g clip-path="url(#52551b5dc0)"><rect x="-14.4" width="172.8" fill="#ffffff" y="-7.2" height="86.4" fill-opacity="1"/><path stroke-linecap="butt" transform="matrix(0.75, 0, 0, 0.75, 0.000000000000010658, 0.000002)" fill="none" stroke-linejoin="miter" d="M 18 -0.00000266667 L 173.999996 -0.00000266667 C 183.942704 -0.00000266667 191.999996 8.057289 191.999996 17.999997 L 191.999996 77.999996 C 191.999996 87.942704 183.942704 95.999995 173.999996 95.999995 L 18 95.999995 C 8.057291 95.999995 -0.000000000000014211 87.942704 -0.000000000000014211 77.999996 L -0.000000000000014211 17.999997 C -0.000000000000014211 8.057289 8.057291 -0.00000266667 18 -0.00000266667 Z M 18 -0.00000266667 " stroke="#d4158a" stroke-width="8" stroke-opacity="1" stroke-miterlimit="4"/></g></svg>